<svg version="1.1" xmlns="http://www.w3.org/2000/svg" width="24" height="24" viewBox="0 0 24 24">
<title>hand</title>
<path d="M34.8544 8.44559C34.2617 7.9925 33.5362 7.74735 32.7901 7.74809C28.2863 7.74809 27.4788 13.6143 26.4794 15.9043C26.4794 15.9043 21.8613 6.23622 20.2551 3.04622C18.5988 -0.244406 15.0632 0.435594 14.0276 2.22684C11.5676 -0.322531 6.91944 1.73559 7.51194 4.83497C4.32194 4.58997 3.03257 7.73684 3.74069 9.75434C1.27507 9.67809 0.122568 12.7275 0.956318 14.9106C0.999443 15.0243 5.37694 23.6393 6.55569 26.5743C6.69257 26.915 6.83069 27.2793 6.97569 27.6631C7.92882 30.1831 9.23444 33.6343 12.5007 36.4062C13.9069 37.5993 15.8538 38.23 18.1326 38.23C22.1488 38.23 26.6207 36.2368 29.5257 33.1512C32.1276 30.3881 33.3744 26.9962 33.1319 23.3418C32.9144 20.0568 33.9594 16.9618 34.7988 14.4743C35.7094 11.775 36.4282 9.64247 34.8544 8.44559ZM31.1376 23.2331C31.6457 30.5006 24.3613 36.6325 18.1813 36.6325C16.2932 36.6325 14.3376 36.3275 13.1157 35.2906C9.61194 32.3168 8.73257 28.6368 7.71694 26.1131C6.50382 23.0937 3.52632 17.2918 2.08319 14.3731C1.49257 13.1781 2.47944 10.635 4.19819 10.635L9.15507 21.1775L11.0332 22.305C11.0332 22.305 6.73194 12.9312 5.37007 9.70059C4.57507 7.81434 5.94507 5.53684 7.79132 5.83372L13.9451 18.9687L15.8238 20.0987L8.65132 4.95309C8.62257 2.26872 12.2957 2.22684 13.1494 3.79434C15.3101 7.76184 19.3663 16.4687 19.3663 16.4687L21.2438 17.5981L14.5107 3.32122C15.8257 1.59997 18.1457 1.84122 19.1457 3.93059C20.3469 6.43997 25.4338 17.3393 25.4338 17.3393C20.4119 19.2218 16.9838 24.6787 20.5732 30.0581C17.7251 24.1768 22.7707 20.0206 25.7513 18.6468C26.8794 18.1262 27.2944 17.1418 27.2944 17.1418L27.2919 17.1425C27.6851 16.4306 27.6619 15.4787 28.1307 13.9381C29.1463 10.6037 30.5394 8.83684 32.5838 8.83684C33.0551 8.83684 33.6488 9.18934 33.9213 9.59122C35.2982 11.6231 30.6651 16.4806 31.1376 23.2331Z" fill="#333333" fill-opacity="0.6"/>
</svg>