<svg version="1.1" xmlns="http://www.w3.org/2000/svg" width="24" height="24" viewBox="0 0 24 24">
<title>search</title>
<path fill-rule="evenodd" clip-rule="evenodd" d="M2.53009 10.48C2.53009 6.0617 6.11181 2.47998 10.5301 2.47998C14.9484 2.47998 18.5301 6.0617 18.5301 10.48C18.5301 14.8983 14.9484 18.48 10.5301 18.48C6.11181 18.48 2.53009 14.8983 2.53009 10.48ZM10.5301 0.47998C5.00724 0.47998 0.53009 4.95713 0.53009 10.48C0.53009 16.0028 5.00724 20.48 10.5301 20.48C12.9314 20.48 15.135 19.6336 16.8588 18.2229L21.823 23.1871C22.2135 23.5776 22.8467 23.5776 23.2372 23.1871C23.6277 22.7966 23.6277 22.1634 23.2372 21.7729L18.273 16.8087C19.6837 15.0848 20.5301 12.8813 20.5301 10.48C20.5301 4.95713 16.0529 0.47998 10.5301 0.47998Z" fill="#333333"/>
</svg>
